<svg xmlns="http://www.w3.org/2000/svg" xmlns:xlink="http://www.w3.org/1999/xlink" xmlns:lucid="lucid" width="502" height="561"><g transform="translate(-1118.999999980525 0)" lucid:page-tab-id="eSt-Y_dUz55m"><path d="M1000 0h1000v1000H1000z" fill="#fff"/><path d="M1120 146a6 6 0 0 1 6-6h488a6 6 0 0 1 6 6v201.75a6 6 0 0 1-6 6h-488a6 6 0 0 1-6-6z" fill="#fff"/><path d="M1123.28 140.65l.87-.36.9-.23.95-.07h3m3.97 0h5.98m3.98 0h5.98m4 0h5.96m4 0h5.96m4 0h5.96m4 0h5.96m4 0h5.96m4 0h5.96m3.98 0h5.98m3.98 0h5.98m3.98 0h5.98m3.98 0h5.98m3.98 0h5.98m3.98 0h5.98m3.98 0h5.98m3.98 0h5.98m3.98 0h5.97m3.98 0h5.97m4 0h5.96m4 0h5.97m3.98 0h5.98m3.98 0h6m3.97 0h5.98m3.98 0h5.98m4 0h5.97m3.98 0h5.98m3.98 0h6m3.97 0h5.98m3.98 0h5.97m4 0h5.96m4 0h5.96m4 0h5.96m3.98 0h5.98m3.98 0h5.98m3.98 0h5.98m3.98 0h5.98m3.98 0h5.98m3.98 0h5.98m3.98 0h5.98m3.98 0h5.97m4 0h5.96m4 0h5.97m4 0h5.96m4 0h5.96m3.98 0h5.97m3.98 0h5.98m4 0h5.97m3.98 0h5.98m3.98 0h3l.94.07.9.22.88.35m2.63 2.63l.36.87.23.9.07.95v3.03m0 4.03v6.05m0 4.05v6.05m0 4.04v6.05m0 4.02v6.06m0 4.03v6.06m0 4.04v6.05m0 4.04v6.04m0 4.03v6.06m0 4.03v6.05m0 4.05v6.05m0 4.04V260m0 4.02v6.06m0 4.03v6.06m0 4.04v6.05m0 4.04v6.04m0 4.03v6.06m0 4.03v6.05m0 4.05v6.05m0 4.04v6.05m0 4.02v3.03l-.07.94-.22.9-.35.87m-2.63 2.63l-.87.36-.9.22-.95.07h-3m-3.97 0h-5.98m-3.98 0h-5.98m-4 0h-5.96m-4 0h-5.96m-4 0h-5.96m-4 0h-5.96m-4 0h-5.96m-4 0h-5.96m-3.98 0h-5.98m-3.98 0h-5.98m-3.98 0h-5.98m-3.98 0h-5.98m-3.98 0h-5.98m-3.98 0h-5.98m-3.98 0h-5.98m-3.98 0h-5.98m-3.98 0h-5.97m-3.98 0h-5.97m-4 0h-5.96m-4 0h-5.97m-3.98 0h-5.98m-3.98 0h-6m-3.97 0h-5.98m-3.98 0H1372m-4 0h-5.97m-3.98 0h-5.98m-3.98 0h-6m-3.97 0h-5.98m-3.98 0h-5.97m-4 0h-5.96m-4 0h-5.96m-4 0h-5.96m-3.98 0h-5.98m-3.98 0h-5.98m-3.98 0h-5.98m-3.98 0h-5.98m-3.98 0h-5.98m-3.98 0h-5.98m-3.98 0h-5.98m-3.98 0h-5.97m-4 0h-5.96m-4 0h-5.97m-4 0h-5.96m-4 0h-5.96m-3.98 0h-5.97m-3.98 0h-5.98m-4 0h-5.97m-3.98 0h-5.98m-3.98 0h-3l-.94-.07-.9-.22-.88-.36m-2.63-2.63l-.36-.87-.23-.9-.07-.95v-3.03m0-4.03v-6.06m0-4.04v-6.05m0-4.04v-6.04m0-4.03v-6.06m0-4.03v-6.05m0-4.05v-6.05m0-4.04v-6.05m0-4.02v-6.06m0-4.03v-6.06m0-4.04v-6.05m0-4.04v-6.04m0-4.03v-6.06m0-4.03v-6.05m0-4.05v-6.05m0-4.04v-6.05m0-4.02v-6.06m0-4.03v-6.06m0-4.04v-6.05m0-4.04v-6.04m0-4.03V146l.07-.94.22-.9.35-.88" stroke="#000" stroke-width="2" fill="none"/><path d="M1120 414.75a6 6 0 0 1 6-6h333a6 6 0 0 1 6 6V554a6 6 0 0 1-6 6h-333a6 6 0 0 1-6-6z" stroke="#000" stroke-width="2" fill="#fff"/><path d="M1120 414.75a6 6 0 0 1 6-6h48a6 6 0 0 1 6 6v15.5a6 6 0 0 1-6 6h-48a6 6 0 0 1-6-6z" fill="none"/><use xlink:href="#a" transform="matrix(1,0,0,1,1120,408.75) translate(11.46701388888889 20.46701388888889)"/><path d="M1300 428.5a6 6 0 0 1 6-6h136.65a6 6 0 0 1 6 6v18.6a6 6 0 0 1-6 6H1306a6 6 0 0 1-6-6z" stroke="#000" stroke-width="2" fill="#fff"/><use xlink:href="#b" transform="matrix(1,0,0,1,1312,434.5) translate(40.670572916666664 12.916666666666668)"/><path d="M1300 469.75a6 6 0 0 1 6-6h136.65a6 6 0 0 1 6 6v18.6a6 6 0 0 1-6 6H1306a6 6 0 0 1-6-6z" stroke="#000" stroke-width="2" fill="#fff"/><use xlink:href="#c" transform="matrix(1,0,0,1,1312,475.75) translate(11.149088541666671 12.916666666666668)"/><path d="M1300 511a6 6 0 0 1 6-6h136.65a6 6 0 0 1 6 6v18.6a6 6 0 0 1-6 6H1306a6 6 0 0 1-6-6z" stroke="#000" stroke-width="2" fill="#fff"/><use xlink:href="#d" transform="matrix(1,0,0,1,1312,517) translate(46.484375 12.916666666666668)"/><path d="M1135 456a6 6 0 0 1 6-6h123a6 6 0 0 1 6 6v84.25a6 6 0 0 1-6 6h-123a6 6 0 0 1-6-6z" stroke="#000" stroke-width="2" fill="#fff"/><path d="M1135 456a6 6 0 0 1 6-6h61.65a6 6 0 0 1 6 6v18.36a6 6 0 0 1-6 6H1141a6 6 0 0 1-6-6z" fill="none"/><use xlink:href="#e" transform="matrix(1,0,0,1,1135,450.00000000000006) translate(10.72341579861111 21.15863715277778)"/><path d="M1143.18 490.6a6 6 0 0 1 6-6h106.64a6 6 0 0 1 6 6v39a6 6 0 0 1-6 6h-106.64a6 6 0 0 1-6-6z" stroke="#000" stroke-width="2" fill="#fff"/><use xlink:href="#f" transform="matrix(1,0,0,1,1155.1772482994363,496.61399298479256) translate(24.680989583333332 12.916666666666668)"/><use xlink:href="#g" transform="matrix(1,0,0,1,1155.1772482994363,496.61399298479256) translate(7.054036458333329 32.27604166666667)"/><path d="M1135 304.75a6 6 0 0 1 6-6h438a6 6 0 0 1 6 6V334a6 6 0 0 1-6 6h-438a6 6 0 0 1-6-6z" stroke="#000" stroke-width="2" fill="#fff"/><use xlink:href="#h" transform="matrix(1,0,0,1,1147,310.75) translate(124.28255208333333 14.041666666666668)"/><use xlink:href="#i" transform="matrix(1,0,0,1,1147,310.75) translate(183.67708333333331 14.041666666666668)"/><use xlink:href="#j" transform="matrix(1,0,0,1,1147,310.75) translate(261.65234375 14.041666666666668)"/><path d="M1360 246a6 6 0 0 1 6-6h213a6 6 0 0 1 6 6v25.1a6 6 0 0 1-6 6h-213a6 6 0 0 1-6-6z" stroke="#000" stroke-width="2" fill="#fff"/><use xlink:href="#k" transform="matrix(1,0,0,1,1372,252) translate(44.875 12.916666666666668)"/><use xlink:href="#l" transform="matrix(1,0,0,1,1372,252) translate(113.859375 12.916666666666668)"/><path d="M1480 413.67a6 6 0 0 1 6-6h108a6 6 0 0 1 6 6v45.16a6 6 0 0 1-6 6h-108a6 6 0 0 1-6-6z" stroke="#000" stroke-width="2" fill="#fff"/><use xlink:href="#m" transform="matrix(1,0,0,1,1492,419.6659342447917) translate(24.458333333333332 12.916666666666668)"/><use xlink:href="#n" transform="matrix(1,0,0,1,1492,419.6659342447917) translate(26.863932291666668 32.27604166666667)"/><path d="M1135 246a6 6 0 0 1 6-6h114.82a6 6 0 0 1 6 6v25.1a6 6 0 0 1-6 6H1141a6 6 0 0 1-6-6z" stroke="#000" stroke-width="2" fill="#fff"/><use xlink:href="#o" transform="matrix(1,0,0,1,1147,252) translate(7.59375 12.916666666666668)"/><use xlink:href="#p" transform="matrix(1,0,0,1,1147,252) translate(49.90494791666667 12.916666666666668)"/><path d="M1370 355.25v20a6 6 0 0 1-6 6h-65.5a6 6 0 0 0-6 6v4.12" stroke="#3a414a" fill="none"/><path d="M1370.47 355.26h-.94v-.5h.94z" stroke="#3a414a" stroke-width=".05" fill="#3a414a"/><path d="M1292.5 406.13l-4.63-14.26h9.27z" stroke="#3a414a" fill="#3a414a"/><path d="M1370 355.25v19.46a6 6 0 0 0 6 6h158a6 6 0 0 1 6 6v3.58" stroke="#3a414a" fill="none"/><path d="M1370.47 355.26h-.94v-.5h.94z" stroke="#3a414a" stroke-width=".05" fill="#3a414a"/><path d="M1540 405.05l-4.63-14.27h9.27z" stroke="#3a414a" fill="#3a414a"/><path d="M1120 146a6 6 0 0 1 6-6h78a6 6 0 0 1 6 6v15.5a6 6 0 0 1-6 6h-78a6 6 0 0 1-6-6z" fill="none"/><use xlink:href="#q" transform="matrix(1,0,0,1,1120,140) translate(15.56423611111111 20.46701388888889)"/><path d="M1135 187.25a6 6 0 0 1 6-6h438a6 6 0 0 1 6 6v25.1a6 6 0 0 1-6 6h-438a6 6 0 0 1-6-6z" stroke="#000" stroke-width="2" fill="#fff"/><use xlink:href="#r" transform="matrix(1,0,0,1,1147,193.25) translate(186.2421875 12.916666666666668)"/><path d="M1157 107.25c-14.9 0-27-4.92-27-11 0-4.86 7.3-8.96 18.66-10.46C1148 71.5 1193 68.74 1211 74.24c9-8.25 54-5.5 54 2.75 27-2.75 54 8.25 36 22 18 11 0 24.75-36 19.25-9 7.15-45 7.15-54 0-18 5.5-54 2.75-54-11z" stroke="#000" stroke-opacity="0" fill="#cfe4ff"/><use xlink:href="#s" transform="matrix(1,0,0,1,1135,73.75) translate(51.41971354166667 26.979166666666668)"/><path d="M1457 107.25c-14.9 0-27-4.92-27-11 0-4.86 7.3-8.96 18.66-10.46C1448 71.5 1493 68.74 1511 74.24c9-8.25 54-5.5 54 2.75 27-2.75 54 8.25 36 22 18 11 0 24.75-36 19.25-9 7.15-45 7.15-54 0-18 5.5-54 2.75-54-11z" stroke="#000" stroke-opacity="0" fill="#cfe4ff"/><use xlink:href="#t" transform="matrix(1,0,0,1,1435,73.75) translate(47.68598958333333 26.979166666666668)"/><path d="M1307 38.5c-14.9 0-27-4.92-27-11 0-4.86 7.3-8.96 18.66-10.46C1298 2.74 1343 0 1361 5.5c9-8.25 54-5.5 54 2.75 27-2.75 54 8.25 36 22 18 11 0 24.75-36 19.25-9 7.15-45 7.15-54 0-18 5.5-54 2.75-54-11z" stroke="#000" stroke-opacity="0" fill="#cfe4ff"/><use xlink:href="#u" transform="matrix(1,0,0,1,1285,5) translate(61.15278645833333 26.979166666666668)"/><path d="M1370 138.5V69.45" stroke="#3a414a" fill="none"/><path d="M1370.47 139h-.94v-.5h.94z" stroke="#3a414a" stroke-width=".05" fill="#3a414a"/><path d="M1370 54.68l4.63 14.27h-9.27z" stroke="#3a414a" fill="#3a414a"/><path d="M1279.5 27.5h-39.1a6 6 0 0 0-6 6v19.42" stroke="#3a414a" fill="none"/><path d="M1280 27.5l.02.4V28h-.53v-.96h.56z" stroke="#3a414a" stroke-width=".05" fill="#3a414a"/><path d="M1234.4 67.7l-4.64-14.28h9.27z" stroke="#3a414a" fill="#3a414a"/><path d="M1220 122.32v1.58m0 2.1v3.18m0 2.1v3.18m0 2.1v3.18m0 2.1v3.18m0 2.1v3.18m0 2.12V154l.07.94.1.46m.73 1.72l.25.4.6.72.72.6.4.26m1.73.72l.46.1.94.08h1.5m2 0h3m2.02 0h3m2 0h3m2.02 0h3m2 0h3.02m2 0h3m2 0h3.02m2 0h3m2 0h3.02m2 0h3m2 0h3.02m2 0h3m2 0h3.02m2 0h3m2 0h3.02m2 0h3m2 0h3.02m2 0h3m2 0h3.02m2 0h3m2.02 0h3m2 0h3m2.02 0h3m2 0h3m2.02 0h3m2 0h3m2.02 0h3m2 0h3.02m2 0h3m2 0h3.02m2 0h3m2 0h3.02m2 0h3m2 0h3.02m2 0h3m2 0h3.02m2 0h3m2 0h3.02m2 0h3m2 0h3.02m2 0h3m2 0h3.02m2 0h3m2 0h3.02m2 0h3m2.02 0h3m2 0h3m2.02 0h1.5l.94.07.46.1m1.72.73l.4.25.72.6.6.72.26.4m.72 1.73l.1.46.08.94v1.54m0 2.06v3.1m0 2.05v3.1m0 2.05v3.1m0 2.04v3.1m0 2.05v3.08m0 2.06v3.1m0 2.04v3.1m0 2.05v3.1m0 2.05v3.1m0 2.05V219m0 2.07v1.55" stroke="#3a414a" fill="none"/><path d="M1220.47 121.92v.4h-.94v-.6z" stroke="#3a414a" stroke-width=".05" fill="#3a414a"/><path d="M1472.5 237.38l-4.63-14.26h9.27z" stroke="#3a414a" fill="#3a414a"/><path d="M1370 138.5v-38.2a6 6 0 0 1 6-6h38.08" stroke="#3a414a" fill="none"/><path d="M1370.47 139h-.94v-.5h.94z" stroke="#3a414a" stroke-width=".05" fill="#3a414a"/><path d="M1428.84 94.3l-14.26 4.63v-9.28z" stroke="#3a414a" fill="#3a414a"/><defs><path d="M180 0v-1490h224l606 953c40 63 108 177 176 312-27-437-7-821-13-1265h190V0h-226C860-448 622-778 356-1262c27 476 11 792 15 1262H180" id="v"/><path d="M52 0l541-1490h220L1361 0h-200l-149-416H398L254 0H52zm404-582h497c-103-290-145-390-251-756-108 377-145 460-246 756" id="w"/><path d="M657 26c-323 0-524-166-541-416h195c15 169 171 246 346 246 202 0 356-106 356-265 5-203-294-238-475-293-239-73-380-191-380-389 0-252 224-419 512-419 294 0 499 171 508 396H992c-17-145-151-228-328-228-193 0-321 102-321 242 0 156 175 211 284 241l149 41c160 44 422 134 422 412 0 244-197 432-541 432" id="x"/><g id="a"><use transform="matrix(0.008680555555555556,0,0,0.008680555555555556,0,0)" xlink:href="#v"/><use transform="matrix(0.008680555555555556,0,0,0.008680555555555556,13.394097222222223,0)" xlink:href="#w"/><use transform="matrix(0.008680555555555556,0,0,0.008680555555555556,25.659722222222225,0)" xlink:href="#x"/></g><path d="M180 0v-1490h510c348 0 508 209 508 474 0 266-160 477-507 477H370V0H180zm190-706h312c236 0 327-133 327-310 0-176-91-307-329-307H370v617" id="y"/><path d="M338-670V0H158v-1490h180v566c73-149 190-208 336-208 226 0 379 139 379 422V0H872v-695c0-172-96-275-252-275-161 0-282 109-282 300" id="z"/><path d="M613 24c-304 0-509-231-509-576 0-350 205-580 509-580 305 0 511 230 511 580 0 345-206 576-511 576zm0-161c226 0 329-195 329-415 0-222-103-419-329-419-223 0-326 196-326 419 0 220 103 415 326 415" id="A"/><path d="M598-1118v154H368v674c0 100 37 144 132 144 23 0 62-6 92-12L629-6c-37 13-88 20-134 20-193 0-307-107-307-290v-688H20v-154h168v-266h180v266h230" id="B"/><path d="M538 24C308 24 148-78 108-271l171-41c32 123 123 178 257 178 156 0 256-77 256-169 0-77-54-128-164-154l-186-44c-203-48-300-148-300-305 0-192 176-326 414-326 230 0 351 112 402 269l-163 42c-31-80-94-158-238-158-133 0-233 69-233 162 0 83 57 129 188 160l169 40c203 48 298 149 298 302 0 196-179 339-441 339" id="C"/><g id="b"><use transform="matrix(0.006510416666666667,0,0,0.006510416666666667,0,0)" xlink:href="#y"/><use transform="matrix(0.006510416666666667,0,0,0.006510416666666667,8.515625,0)" xlink:href="#z"/><use transform="matrix(0.006510416666666667,0,0,0.006510416666666667,16.399739583333336,0)" xlink:href="#A"/><use transform="matrix(0.006510416666666667,0,0,0.006510416666666667,24.394531250000004,0)" xlink:href="#B"/><use transform="matrix(0.006510416666666667,0,0,0.006510416666666667,28.62630208333334,0)" xlink:href="#A"/><use transform="matrix(0.006510416666666667,0,0,0.006510416666666667,36.62109375000001,0)" xlink:href="#C"/></g><path d="M645 0H180v-1490h484c435 0 692 280 692 742 0 466-257 748-711 748zM370-168h263c363 0 539-218 539-580 0-358-176-574-521-574H370v1154" id="D"/><path d="M613 24c-304 0-509-231-509-576 0-350 205-580 509-580 216 0 392 114 453 309l-173 49c-33-115-133-197-280-197-223 0-326 196-326 419 0 220 103 415 326 415 150 0 252-85 285-206l172 49C1010-95 832 24 613 24" id="E"/><path d="M537 14c-226 0-379-139-379-422v-710h180v695c0 172 97 275 253 275 160 0 281-109 281-300v-670h181V0H879v-209C806-46 684 14 537 14" id="F"/><path d="M158 0v-1118h175l1 205c55-151 181-225 313-225 147 0 245 90 285 228 53-141 190-228 352-228 194 0 352 125 352 384V0h-181v-749c0-161-105-225-225-225-151 0-243 103-243 244V0H807v-767c0-124-93-207-219-207-131 0-250 92-250 270V0H158" id="G"/><path d="M628 24c-324 0-524-230-524-574 0-343 198-582 503-582 237 0 487 146 487 559v75H286c9 234 145 362 343 362 132 0 231-58 273-172l174 48C1024-91 857 24 628 24zM287-650h624c-17-190-120-322-304-322-192 0-309 151-320 322" id="H"/><path d="M338-670V0H158v-1118h173l1 207c72-158 192-221 342-221 226 0 378 139 378 422V0H872v-695c0-172-96-275-252-275-161 0-282 109-282 300" id="I"/><path d="M692-1560L212 224H46l480-1784h166" id="J"/><path d="M158 0v-1118h174v172h12c41-113 157-188 290-188 26 0 70 2 91 3v181c-11-2-60-10-108-10-161 0-279 109-279 260V0H158" id="K"/><path d="M158 0v-1118h180V0H158zm91-1301c-68 0-125-53-125-119s57-119 125-119c69 0 126 53 126 119s-57 119-126 119" id="L"/><path d="M481 0L54-1118h197c107 314 236 620 325 951 87-331 217-637 324-951h197L670 0H481" id="M"/><g id="c"><use transform="matrix(0.006510416666666667,0,0,0.006510416666666667,0,0)" xlink:href="#D"/><use transform="matrix(0.006510416666666667,0,0,0.006510416666666667,9.622395833333334,0)" xlink:href="#A"/><use transform="matrix(0.006510416666666667,0,0,0.006510416666666667,17.6171875,0)" xlink:href="#E"/><use transform="matrix(0.006510416666666667,0,0,0.006510416666666667,25.234375,0)" xlink:href="#F"/><use transform="matrix(0.006510416666666667,0,0,0.006510416666666667,33.118489583333336,0)" xlink:href="#G"/><use transform="matrix(0.006510416666666667,0,0,0.006510416666666667,44.798177083333336,0)" xlink:href="#H"/><use transform="matrix(0.006510416666666667,0,0,0.006510416666666667,52.571614583333336,0)" xlink:href="#I"/><use transform="matrix(0.006510416666666667,0,0,0.006510416666666667,60.44921875,0)" xlink:href="#B"/><use transform="matrix(0.006510416666666667,0,0,0.006510416666666667,64.81119791666667,0)" xlink:href="#J"/><use transform="matrix(0.006510416666666667,0,0,0.006510416666666667,69.61588541666667,0)" xlink:href="#D"/><use transform="matrix(0.006510416666666667,0,0,0.006510416666666667,79.23828125,0)" xlink:href="#K"/><use transform="matrix(0.006510416666666667,0,0,0.006510416666666667,84.46614583333333,0)" xlink:href="#L"/><use transform="matrix(0.006510416666666667,0,0,0.006510416666666667,87.6953125,0)" xlink:href="#M"/><use transform="matrix(0.006510416666666667,0,0,0.006510416666666667,94.92838541666666,0)" xlink:href="#H"/></g><path d="M180 0v-1490h901v168H370v510h643v168H370V0H180" id="N"/><path d="M98-1322v-168h1126v168H757V0H567v-1322H98" id="O"/><g id="d"><use transform="matrix(0.006510416666666667,0,0,0.006510416666666667,0,0)" xlink:href="#C"/><use transform="matrix(0.006510416666666667,0,0,0.006510416666666667,7.037760416666667,0)" xlink:href="#N"/><use transform="matrix(0.006510416666666667,0,0,0.006510416666666667,14.908854166666668,0)" xlink:href="#O"/><use transform="matrix(0.006510416666666667,0,0,0.006510416666666667,23.515625,0)" xlink:href="#y"/></g><path d="M158 0v-1490h180v865h22l478-493h223L593-638 1096 0H865L456-523 338-412V0H158" id="P"/><g id="e"><use transform="matrix(0.007595486111111112,0,0,0.007595486111111112,0,0)" xlink:href="#D"/><use transform="matrix(0.007595486111111112,0,0,0.007595486111111112,11.226128472222223,0)" xlink:href="#A"/><use transform="matrix(0.007595486111111112,0,0,0.007595486111111112,20.553385416666668,0)" xlink:href="#E"/><use transform="matrix(0.007595486111111112,0,0,0.007595486111111112,29.44010416666667,0)" xlink:href="#P"/><use transform="matrix(0.007595486111111112,0,0,0.007595486111111112,37.62803819444445,0)" xlink:href="#H"/><use transform="matrix(0.007595486111111112,0,0,0.007595486111111112,46.697048611111114,0)" xlink:href="#K"/></g><path d="M545 20c-263 0-445-160-445-446v-80h190v80c0 182 102 279 255 279 152 0 254-97 254-279v-1064h190v1064c0 286-181 446-444 446" id="Q"/><path d="M338-1490V0H158v-1490h180" id="R"/><path d="M140 405l46-156c120 36 205 19 263-150l32-93L54-1118h197c107 313 237 620 324 950 87-331 219-637 326-950h196L606 167c-68 178-176 259-334 259-64 0-113-12-132-21" id="S"/><path d="M678-1118v154H420V0H240v-964H20v-154h220v-149c0-194 155-293 318-293 85 0 141 18 168 30l-50 154c-19-6-47-17-97-17-111 0-159 58-159 166v109h258" id="T"/><g id="f"><use transform="matrix(0.006510416666666667,0,0,0.006510416666666667,0,0)" xlink:href="#Q"/><use transform="matrix(0.006510416666666667,0,0,0.006510416666666667,7.610677083333334,0)" xlink:href="#H"/><use transform="matrix(0.006510416666666667,0,0,0.006510416666666667,15.384114583333334,0)" xlink:href="#R"/><use transform="matrix(0.006510416666666667,0,0,0.006510416666666667,18.61328125,0)" xlink:href="#R"/><use transform="matrix(0.006510416666666667,0,0,0.006510416666666667,21.907552083333336,0)" xlink:href="#S"/><use transform="matrix(0.006510416666666667,0,0,0.006510416666666667,29.596354166666675,0)" xlink:href="#T"/><use transform="matrix(0.006510416666666667,0,0,0.006510416666666667,34.53125000000001,0)" xlink:href="#L"/><use transform="matrix(0.006510416666666667,0,0,0.006510416666666667,37.76041666666667,0)" xlink:href="#I"/></g><path d="M180 0v-1490h270l367 940c28 72 75 218 110 339 35-117 81-264 110-339l362-940h271V0h-187c2-448-5-837 7-1287-157 497-311 829-483 1287H842C666-458 514-784 354-1284c12 438 5 843 7 1284H180" id="U"/><g id="g"><use transform="matrix(0.006510416666666667,0,0,0.006510416666666667,0,0)" xlink:href="#U"/><use transform="matrix(0.006510416666666667,0,0,0.006510416666666667,12.044270833333334,0)" xlink:href="#F"/><use transform="matrix(0.006510416666666667,0,0,0.006510416666666667,19.928385416666668,0)" xlink:href="#C"/><use transform="matrix(0.006510416666666667,0,0,0.006510416666666667,26.966145833333336,0)" xlink:href="#L"/><use transform="matrix(0.006510416666666667,0,0,0.006510416666666667,30.1953125,0)" xlink:href="#E"/><use transform="matrix(0.006510416666666667,0,0,0.006510416666666667,37.8125,0)" xlink:href="#J"/><use transform="matrix(0.006510416666666667,0,0,0.006510416666666667,42.6171875,0)" xlink:href="#U"/><use transform="matrix(0.006510416666666667,0,0,0.006510416666666667,54.661458333333336,0)" xlink:href="#A"/><use transform="matrix(0.006510416666666667,0,0,0.006510416666666667,62.395833333333336,0)" xlink:href="#M"/><use transform="matrix(0.006510416666666667,0,0,0.006510416666666667,69.88932291666667,0)" xlink:href="#L"/><use transform="matrix(0.006510416666666667,0,0,0.006510416666666667,73.11848958333334,0)" xlink:href="#H"/></g><path d="M577 24c-279 0-473-224-473-580 0-354 195-576 474-576 218 0 287 134 324 193h14v-551h180V0H922v-173h-20C865-111 790 24 577 24zm27-161c203 0 314-172 314-421 0-247-108-413-314-413-212 0-317 181-317 413 0 235 108 421 317 421" id="V"/><path d="M789 20c-398 0-667-293-667-764 0-473 273-766 655-766 315 0 558 198 612 487h-196c-61-191-204-311-415-311-262 0-471 207-471 590 0 380 208 588 482 588 249 0 420-165 425-427H828v-166h572v163c0 370-256 606-611 606" id="W"/><path d="M471 26C259 26 90-98 90-318c0-256 228-303 435-329 202-27 287-16 287-108 0-139-79-219-234-219-161 0-248 86-283 164l-173-57c86-203 278-265 451-265 150 0 419 46 419 395V0H815v-152h-12C765-73 660 26 471 26zm31-159c199 0 310-134 310-271v-155c-30 35-226 55-295 64-131 17-246 59-246 186 0 116 97 176 231 176" id="X"/><g id="h"><use transform="matrix(0.006510416666666667,0,0,0.006510416666666667,0,0)" xlink:href="#w"/><use transform="matrix(0.006510416666666667,0,0,0.006510416666666667,9.19921875,0)" xlink:href="#V"/><use transform="matrix(0.006510416666666667,0,0,0.006510416666666667,17.36328125,0)" xlink:href="#W"/><use transform="matrix(0.006510416666666667,0,0,0.006510416666666667,27.311197916666668,0)" xlink:href="#F"/><use transform="matrix(0.006510416666666667,0,0,0.006510416666666667,35.1953125,0)" xlink:href="#X"/><use transform="matrix(0.006510416666666667,0,0,0.006510416666666667,42.682291666666664,0)" xlink:href="#K"/><use transform="matrix(0.006510416666666667,0,0,0.006510416666666667,47.48046875,0)" xlink:href="#V"/></g><path d="M180 0v-1490h190v644h782v-644h190V0h-190v-678H370V0H180" id="Y"/><path d="M783 20c-382 0-661-292-661-764 0-473 279-766 661-766 302 0 548 182 601 489h-190c-42-204-217-313-411-313-268 0-476 208-476 590 0 381 209 588 476 588 195 0 369-110 411-313h190c-52 303-296 489-601 489" id="Z"/><path d="M593-100v-404H195v-159h398v-403h169v403h398v159H762v404H593" id="aa"/><g id="i"><use transform="matrix(0.006510416666666667,0,0,0.006510416666666667,0,0)" xlink:href="#D"/><use transform="matrix(0.006510416666666667,0,0,0.006510416666666667,9.622395833333334,0)" xlink:href="#Y"/><use transform="matrix(0.006510416666666667,0,0,0.006510416666666667,19.53125,0)" xlink:href="#Z"/><use transform="matrix(0.006510416666666667,0,0,0.006510416666666667,29.270833333333336,0)" xlink:href="#y"/><use transform="matrix(0.006510416666666667,0,0,0.006510416666666667,37.180989583333336,0)" xlink:href="#aa"/><use transform="matrix(0.006510416666666667,0,0,0.006510416666666667,46.00260416666667,0)" xlink:href="#D"/><use transform="matrix(0.006510416666666667,0,0,0.006510416666666667,55.625,0)" xlink:href="#v"/><use transform="matrix(0.006510416666666667,0,0,0.006510416666666667,65.67057291666667,0)" xlink:href="#x"/></g><g id="j"><use transform="matrix(0.006510416666666667,0,0,0.006510416666666667,0,0)" xlink:href="#C"/><use transform="matrix(0.006510416666666667,0,0,0.006510416666666667,7.037760416666667,0)" xlink:href="#H"/><use transform="matrix(0.006510416666666667,0,0,0.006510416666666667,14.811197916666668,0)" xlink:href="#K"/><use transform="matrix(0.006510416666666667,0,0,0.006510416666666667,20.0390625,0)" xlink:href="#M"/><use transform="matrix(0.006510416666666667,0,0,0.006510416666666667,27.27213541666666,0)" xlink:href="#H"/><use transform="matrix(0.006510416666666667,0,0,0.006510416666666667,35.045572916666664,0)" xlink:href="#K"/></g><g id="k"><use transform="matrix(0.006510416666666667,0,0,0.006510416666666667,0,0)" xlink:href="#Z"/><use transform="matrix(0.006510416666666667,0,0,0.006510416666666667,9.739583333333334,0)" xlink:href="#R"/><use transform="matrix(0.006510416666666667,0,0,0.006510416666666667,12.96875,0)" xlink:href="#A"/><use transform="matrix(0.006510416666666667,0,0,0.006510416666666667,20.963541666666668,0)" xlink:href="#F"/><use transform="matrix(0.006510416666666667,0,0,0.006510416666666667,28.84765625,0)" xlink:href="#V"/><use transform="matrix(0.006510416666666667,0,0,0.006510416666666667,37.01171875,0)" xlink:href="#T"/><use transform="matrix(0.006510416666666667,0,0,0.006510416666666667,41.946614583333336,0)" xlink:href="#R"/><use transform="matrix(0.006510416666666667,0,0,0.006510416666666667,45.17578125,0)" xlink:href="#X"/><use transform="matrix(0.006510416666666667,0,0,0.006510416666666667,52.662760416666664,0)" xlink:href="#K"/><use transform="matrix(0.006510416666666667,0,0,0.006510416666666667,57.4609375,0)" xlink:href="#H"/></g><g id="l"><use transform="matrix(0.006510416666666667,0,0,0.006510416666666667,0,0)" xlink:href="#O"/><use transform="matrix(0.006510416666666667,0,0,0.006510416666666667,7.623697916666667,0)" xlink:href="#F"/><use transform="matrix(0.006510416666666667,0,0,0.006510416666666667,15.5078125,0)" xlink:href="#I"/><use transform="matrix(0.006510416666666667,0,0,0.006510416666666667,23.385416666666668,0)" xlink:href="#I"/><use transform="matrix(0.006510416666666667,0,0,0.006510416666666667,31.263020833333336,0)" xlink:href="#H"/><use transform="matrix(0.006510416666666667,0,0,0.006510416666666667,39.036458333333336,0)" xlink:href="#R"/></g><g id="m"><use transform="matrix(0.006510416666666667,0,0,0.006510416666666667,0,0)" xlink:href="#y"/><use transform="matrix(0.006510416666666667,0,0,0.006510416666666667,8.515625,0)" xlink:href="#z"/><use transform="matrix(0.006510416666666667,0,0,0.006510416666666667,16.399739583333336,0)" xlink:href="#A"/><use transform="matrix(0.006510416666666667,0,0,0.006510416666666667,24.394531250000004,0)" xlink:href="#I"/><use transform="matrix(0.006510416666666667,0,0,0.006510416666666667,32.27213541666667,0)" xlink:href="#H"/><use transform="matrix(0.006510416666666667,0,0,0.006510416666666667,40.04557291666667,0)" xlink:href="#C"/></g><path d="M784 20c-382 0-662-292-662-764 0-473 280-766 662-766s660 293 660 766c0 472-278 764-660 764zm0-176c266 0 475-207 475-588 0-383-209-590-475-590-268 0-477 208-477 590 0 380 209 588 477 588" id="ab"/><g id="n"><use transform="matrix(0.006510416666666667,0,0,0.006510416666666667,0,0)" xlink:href="#ab"/><use transform="matrix(0.006510416666666667,0,0,0.006510416666666667,10.1953125,0)" xlink:href="#B"/><use transform="matrix(0.006510416666666667,0,0,0.006510416666666667,14.557291666666668,0)" xlink:href="#z"/><use transform="matrix(0.006510416666666667,0,0,0.006510416666666667,22.44140625,0)" xlink:href="#H"/><use transform="matrix(0.006510416666666667,0,0,0.006510416666666667,30.21484375,0)" xlink:href="#K"/><use transform="matrix(0.006510416666666667,0,0,0.006510416666666667,35.234375,0)" xlink:href="#C"/></g><path d="M180 0v-1490h510c348 0 508 194 508 460 0 198-88 351-276 417L1256 0h-220L726-579c-117 2-238 0-356 1V0H180zm190-747h312c235 0 327-108 327-283 0-177-92-293-329-293H370v576" id="ac"/><g id="o"><use transform="matrix(0.006510416666666667,0,0,0.006510416666666667,0,0)" xlink:href="#Z"/><use transform="matrix(0.006510416666666667,0,0,0.006510416666666667,9.739583333333334,0)" xlink:href="#ac"/><use transform="matrix(0.006510416666666667,0,0,0.006510416666666667,18.3203125,0)" xlink:href="#ab"/><use transform="matrix(0.006510416666666667,0,0,0.006510416666666667,28.515625,0)" xlink:href="#v"/></g><path d="M677 24c-213 0-288-135-325-197h-20V0H158v-1490h180v551h14c37-59 106-193 324-193 279 0 474 222 474 576 0 356-194 580-473 580zm-27-161c209 0 317-186 317-421 0-232-105-413-317-413-206 0-314 166-314 413 0 249 111 421 314 421" id="ad"/><g id="p"><use transform="matrix(0.006510416666666667,0,0,0.006510416666666667,0,0)" xlink:href="#E"/><use transform="matrix(0.006510416666666667,0,0,0.006510416666666667,7.6171875,0)" xlink:href="#H"/><use transform="matrix(0.006510416666666667,0,0,0.006510416666666667,15.390625,0)" xlink:href="#K"/><use transform="matrix(0.006510416666666667,0,0,0.006510416666666667,20.618489583333336,0)" xlink:href="#B"/><use transform="matrix(0.006510416666666667,0,0,0.006510416666666667,24.980468750000004,0)" xlink:href="#ad"/><use transform="matrix(0.006510416666666667,0,0,0.006510416666666667,33.14453125,0)" xlink:href="#A"/><use transform="matrix(0.006510416666666667,0,0,0.006510416666666667,41.139322916666664,0)" xlink:href="#B"/></g><g id="q"><use transform="matrix(0.008680555555555556,0,0,0.008680555555555556,0,0)" xlink:href="#D"/><use transform="matrix(0.008680555555555556,0,0,0.008680555555555556,12.829861111111112,0)" xlink:href="#H"/><use transform="matrix(0.008680555555555556,0,0,0.008680555555555556,23.194444444444446,0)" xlink:href="#ad"/><use transform="matrix(0.008680555555555556,0,0,0.008680555555555556,34.079861111111114,0)" xlink:href="#L"/><use transform="matrix(0.008680555555555556,0,0,0.008680555555555556,38.38541666666667,0)" xlink:href="#X"/><use transform="matrix(0.008680555555555556,0,0,0.008680555555555556,48.36805555555556,0)" xlink:href="#I"/></g><path d="M409 0L70-1118h191c89 329 165 560 243 925 75-353 154-601 240-925h192c85 325 161 564 235 922 77-354 157-598 244-922h191L1267 0h-179c-86-307-176-590-250-913C763-588 675-308 588 0H409" id="ae"/><g id="r"><use transform="matrix(0.006510416666666667,0,0,0.006510416666666667,0,0)" xlink:href="#T"/><use transform="matrix(0.006510416666666667,0,0,0.006510416666666667,4.934895833333334,0)" xlink:href="#L"/><use transform="matrix(0.006510416666666667,0,0,0.006510416666666667,8.1640625,0)" xlink:href="#K"/><use transform="matrix(0.006510416666666667,0,0,0.006510416666666667,12.962239583333332,0)" xlink:href="#H"/><use transform="matrix(0.006510416666666667,0,0,0.006510416666666667,20.494791666666664,0)" xlink:href="#ae"/><use transform="matrix(0.006510416666666667,0,0,0.006510416666666667,31.40625,0)" xlink:href="#X"/><use transform="matrix(0.006510416666666667,0,0,0.006510416666666667,38.893229166666664,0)" xlink:href="#R"/><use transform="matrix(0.006510416666666667,0,0,0.006510416666666667,42.12239583333333,0)" xlink:href="#R"/><use transform="matrix(0.006510416666666667,0,0,0.006510416666666667,45.35156249999999,0)" xlink:href="#V"/></g><g id="s"><use transform="matrix(0.006510416666666667,0,0,0.006510416666666667,0,0)" xlink:href="#Z"/><use transform="matrix(0.006510416666666667,0,0,0.006510416666666667,9.739583333333334,0)" xlink:href="#R"/><use transform="matrix(0.006510416666666667,0,0,0.006510416666666667,12.96875,0)" xlink:href="#A"/><use transform="matrix(0.006510416666666667,0,0,0.006510416666666667,20.963541666666668,0)" xlink:href="#F"/><use transform="matrix(0.006510416666666667,0,0,0.006510416666666667,28.84765625,0)" xlink:href="#V"/><use transform="matrix(0.006510416666666667,0,0,0.006510416666666667,37.01171875,0)" xlink:href="#N"/><use transform="matrix(0.006510416666666667,0,0,0.006510416666666667,44.8828125,0)" xlink:href="#R"/><use transform="matrix(0.006510416666666667,0,0,0.006510416666666667,48.111979166666664,0)" xlink:href="#X"/><use transform="matrix(0.006510416666666667,0,0,0.006510416666666667,55.59895833333332,0)" xlink:href="#K"/><use transform="matrix(0.006510416666666667,0,0,0.006510416666666667,60.39713541666667,0)" xlink:href="#H"/></g><g id="t"><use transform="matrix(0.006510416666666667,0,0,0.006510416666666667,0,0)" xlink:href="#ac"/><use transform="matrix(0.006510416666666667,0,0,0.006510416666666667,8.385416666666668,0)" xlink:href="#H"/><use transform="matrix(0.006510416666666667,0,0,0.006510416666666667,16.158854166666668,0)" xlink:href="#G"/><use transform="matrix(0.006510416666666667,0,0,0.006510416666666667,27.838541666666668,0)" xlink:href="#A"/><use transform="matrix(0.006510416666666667,0,0,0.006510416666666667,35.833333333333336,0)" xlink:href="#B"/><use transform="matrix(0.006510416666666667,0,0,0.006510416666666667,40.065104166666664,0)" xlink:href="#H"/><use transform="matrix(0.006510416666666667,0,0,0.006510416666666667,47.838541666666664,0)" xlink:href="#v"/><use transform="matrix(0.006510416666666667,0,0,0.006510416666666667,57.88411458333332,0)" xlink:href="#w"/><use transform="matrix(0.006510416666666667,0,0,0.006510416666666667,67.08333333333333,0)" xlink:href="#x"/></g><path d="M370-1490V0H180v-1490h190" id="af"/><g id="u"><use transform="matrix(0.006510416666666667,0,0,0.006510416666666667,0,0)" xlink:href="#af"/><use transform="matrix(0.006510416666666667,0,0,0.006510416666666667,3.580729166666667,0)" xlink:href="#I"/><use transform="matrix(0.006510416666666667,0,0,0.006510416666666667,11.458333333333334,0)" xlink:href="#B"/><use transform="matrix(0.006510416666666667,0,0,0.006510416666666667,15.690104166666668,0)" xlink:href="#H"/><use transform="matrix(0.006510416666666667,0,0,0.006510416666666667,23.463541666666668,0)" xlink:href="#K"/><use transform="matrix(0.006510416666666667,0,0,0.006510416666666667,28.69140625,0)" xlink:href="#I"/><use transform="matrix(0.006510416666666667,0,0,0.006510416666666667,36.569010416666664,0)" xlink:href="#H"/><use transform="matrix(0.006510416666666667,0,0,0.006510416666666667,44.342447916666664,0)" xlink:href="#B"/></g></defs></g></svg>