<svg xmlns="http://www.w3.org/2000/svg" xmlns:xlink="http://www.w3.org/1999/xlink" xmlns:lucid="lucid" width="740.5" height="401"><g transform="translate(1280.5 760)" lucid:page-tab-id="0_0"><path d="M-1500-1000h1000V0h-1000z" fill="#fff"/><path d="M-984-722.86c-17.5 0-31.7-4.75-31.7-10.6 0-4.7 8.57-8.66 21.9-10.1-.77-13.8 52.1-16.44 73.23-11.14 10.57-7.95 63.43-5.3 63.43 2.66 31.7-2.66 63.43 7.96 42.28 21.22 21.15 10.6 0 23.87-42.28 18.57-10.57 6.9-52.86 6.9-63.43 0-21.14 5.3-63.43 2.65-63.43-10.6z" stroke="#000" stroke-opacity="0" fill="#cfe4ff"/><use xlink:href="#a" transform="matrix(1,0,0,1,-1010.7142857142857,-755) translate(78.15278645833334 26.666666666666668)"/><path d="M-1015.7-674.42a6 6 0 0 1 6-6h199.4a6 6 0 0 1 6 6v41.06a6 6 0 0 1-6 6h-199.4a6 6 0 0 1-6-6z" stroke="#000" stroke-width="2" fill="#fff"/><use xlink:href="#b" transform="matrix(1,0,0,1,-1003.7142857142857,-668.4182875597445) translate(11.122395833333343 20.416666666666668)"/><use xlink:href="#c" transform="matrix(1,0,0,1,-1003.7142857142857,-668.4182875597445) translate(62.52864583333334 20.416666666666668)"/><use xlink:href="#d" transform="matrix(1,0,0,1,-1003.7142857142857,-668.4182875597445) translate(116.49348958333334 20.416666666666668)"/><path d="M-1015.7-594.84a6 6 0 0 1 6-6h199.4a6 6 0 0 1 6 6v39.03a6 6 0 0 1-6 6h-199.4a6 6 0 0 1-6-6z" stroke="#000" stroke-width="2" fill="#fff"/><use xlink:href="#e" transform="matrix(1,0,0,1,-1003.7142857142857,-588.8365751194892) translate(40.9921875 18.166666666666668)"/><use xlink:href="#f" transform="matrix(1,0,0,1,-1003.7142857142857,-588.8365751194892) translate(71.12239583333334 18.166666666666668)"/><use xlink:href="#g" transform="matrix(1,0,0,1,-1003.7142857142857,-588.8365751194892) translate(93.12760416666667 18.166666666666668)"/><path d="M-1252.25-643.28c-15.33 0-27.75-4.75-27.75-10.6 0-4.7 7.5-8.65 19.17-10.1-.67-13.8 45.58-16.44 64.08-11.13 9.25-7.97 55.5-5.32 55.5 2.64 27.75-2.65 55.5 7.96 37 21.22 18.5 10.6 0 23.88-37 18.57-9.25 6.9-46.25 6.9-55.5 0-18.5 5.3-55.5 2.65-55.5-10.6z" stroke="#000" stroke-opacity="0" fill="#cfe4ff"/><use xlink:href="#h" transform="matrix(1,0,0,1,-1275,-675.4182875597445) translate(56.387812499999995 26.666666666666668)"/><path d="M-719.7-643.28c-17.53 0-31.73-4.75-31.73-10.6 0-4.7 8.6-8.65 21.9-10.1-.76-13.8 52.1-16.44 73.24-11.13 10.6-7.97 63.44-5.32 63.44 2.64 31.72-2.65 63.43 7.96 42.3 21.22 21.13 10.6 0 23.88-42.3 18.57-10.57 6.9-52.85 6.9-63.43 0-21.13 5.3-63.4 2.65-63.4-10.6z" stroke="#000" stroke-opacity="0" fill="#cfe4ff"/><use xlink:href="#i" transform="matrix(1,0,0,1,-746.4285714285714,-675.4182875597445) translate(62.81098958333333 26.666666666666668)"/><use xlink:href="#j" transform="matrix(1,0,0,1,-746.4285714285714,-675.4182875597445) translate(114.39953125 26.666666666666668)"/><path d="M-910-515.25a6 6 0 0 1 6-6h199.43a6 6 0 0 1 6 6v39.02a6 6 0 0 1-6 6H-904a6 6 0 0 1-6-6z" stroke="#000" stroke-width="2" fill="#fff"/><use xlink:href="#k" transform="matrix(1,0,0,1,-897.9999999999999,-509.2548626792337) translate(31.68880208333333 12.916666666666668)"/><use xlink:href="#l" transform="matrix(1,0,0,1,-897.9999999999999,-509.2548626792337) translate(59.97005208333333 12.916666666666668)"/><use xlink:href="#m" transform="matrix(1,0,0,1,-897.9999999999999,-509.2548626792337) translate(98.45963541666667 12.916666666666668)"/><use xlink:href="#n" transform="matrix(1,0,0,1,-897.9999999999999,-509.2548626792337) translate(124.78776041666667 12.916666666666668)"/><use xlink:href="#o" transform="matrix(1,0,0,1,-897.9999999999999,-509.2548626792337) translate(58.47591145833333 32.27604166666667)"/><use xlink:href="#p" transform="matrix(1,0,0,1,-897.9999999999999,-509.2548626792337) translate(104.205078125 32.27604166666667)"/><path d="M-1068.57-517.3a6 6 0 0 1 6-6h93.7a6 6 0 0 1 6 6v43.16a6 6 0 0 1-6 6h-93.7a6 6 0 0 1-6-6z" stroke="#000" stroke-width="2" fill="#fff"/><use xlink:href="#q" transform="matrix(1,0,0,1,-1056.5714285714287,-511.28666364766343) translate(8.2265625 12.916666666666668)"/><use xlink:href="#r" transform="matrix(1,0,0,1,-1056.5714285714287,-511.28666364766343) translate(45.973958333333336 12.916666666666668)"/><use xlink:href="#s" transform="matrix(1,0,0,1,-1056.5714285714287,-511.28666364766343) translate(6.729166666666664 32.27604166666667)"/><path d="M-1015.7-408.1a6 6 0 0 1 6-6h93.7a6 6 0 0 1 6 6v42.1a6 6 0 0 1-6 6h-93.7a6 6 0 0 1-6-6z" stroke="#000" stroke-width="2" fill="#fff"/><use xlink:href="#t" transform="matrix(1,0,0,1,-1003.7142857142858,-402.1001938595317) translate(15.895833333333332 20.666666666666668)"/><path d="M-857.14-409.15a6 6 0 0 1 6-6h93.7a6 6 0 0 1 6 6v42.1a6 6 0 0 1-6 6h-93.7a6 6 0 0 1-6-6z" stroke="#000" stroke-width="2" fill="#fff"/><use xlink:href="#u" transform="matrix(1,0,0,1,-845.1428571428571,-403.1459127588932) translate(17.458333333333332 20.666666666666668)"/><path d="M-698.57-408.1a6 6 0 0 1 6-6h93.7a6 6 0 0 1 6 6v42.1a6 6 0 0 1-6 6h-93.7a6 6 0 0 1-6-6z" stroke="#000" stroke-width="2" fill="#fff"/><use xlink:href="#v" transform="matrix(1,0,0,1,-686.5714285714287,-402.1001938595317) translate(19.863932291666668 20.666666666666668)"/><path d="M-910-708.3v10.5" stroke="#3a414a" fill="none"/><path d="M-909.52-708.73v.43h-.96v-.6z" stroke="#3a414a" stroke-width=".05" fill="#3a414a"/><path d="M-910-683.04l-4.63-14.26h9.26z" stroke="#3a414a" fill="#3a414a"/><path d="M-910-625.86v7.64" stroke="#3a414a" fill="none"/><path d="M-909.52-625.85h-.96v-.5h.96z" stroke="#3a414a" stroke-width=".05" fill="#3a414a"/><path d="M-910-603.46l-4.63-14.26h9.26z" stroke="#3a414a" fill="#3a414a"/><path d="M-910-548.3v6.77a6 6 0 0 0 6 6h96.6" stroke="#3a414a" fill="none"/><path d="M-909.52-548.3h-.96v-.5h.96z" stroke="#3a414a" stroke-width=".05" fill="#3a414a"/><path d="M-804.65-523.83l-7.76-12.84 9-2.1z" stroke="#3a414a" fill="#3a414a"/><path d="M-1017.2-575.33h-80.06a6 6 0 0 1-6-6v-37.6" stroke="#3a414a" fill="none"/><path d="M-1016.7-574.85h-.53v-.95h.52z" stroke="#3a414a" stroke-width=".05" fill="#3a414a"/><path d="M-1103.26-633.7l4.63 14.28h-9.27z" stroke="#3a414a" fill="#3a414a"/><path d="M-802.8-575.33h172.04a6 6 0 0 0 6-6v-29.9" stroke="#3a414a" fill="none"/><path d="M-802.77-574.85h-.52v-.95h.53z" stroke="#3a414a" stroke-width=".05" fill="#3a414a"/><path d="M-624.76-625.98l4.63 14.26h-9.27z" stroke="#3a414a" fill="#3a414a"/><path d="M-698.57-614.73a6 6 0 0 1 6-6h40.86a6 6 0 0 1 6 6v14.52a6 6 0 0 1-6 6h-40.87a6 6 0 0 1-6-6z" fill="none"/><use xlink:href="#w" transform="matrix(1,0,0,1,-698.5714285714286,-620.732003229553) translate(7.577473958333332 18.350260416666668)"/><path d="M-1260.18-614.73a6 6 0 0 1 6-6h133.36a6 6 0 0 1 6 6v7.9a6 6 0 0 1-6 6h-133.36a6 6 0 0 1-6-6z" fill="none"/><use xlink:href="#x" transform="matrix(1,0,0,1,-1260.1785714285713,-620.732003229553) translate(20.636718749999993 14.850260416666668)"/><use xlink:href="#y" transform="matrix(1,0,0,1,-1260.1785714285713,-620.732003229553) translate(44.51041666666666 14.850260416666668)"/><path d="M-804.3-468.73v20.56a6 6 0 0 1-6 6h-146.2a6 6 0 0 0-6 6v4.7" stroke="#3a414a" fill="none"/><path d="M-803.8-468.72h-.96v-.5h.95z" stroke="#3a414a" stroke-width=".05" fill="#3a414a"/><path d="M-962.5-416.72l-4.65-14.26h9.27z" stroke="#3a414a" fill="#3a414a"/><path d="M-804.3-468.73v36.2" stroke="#3a414a" fill="none"/><path d="M-803.8-468.72h-.96v-.5h.95z" stroke="#3a414a" stroke-width=".05" fill="#3a414a"/><path d="M-804.3-417.76l-4.62-14.27h9.27z" stroke="#3a414a" fill="#3a414a"/><path d="M-804.3-468.73v20.56a6 6 0 0 0 6 6h146.6a6 6 0 0 1 6 6v4.7" stroke="#3a414a" fill="none"/><path d="M-803.8-468.72h-.96v-.5h.95z" stroke="#3a414a" stroke-width=".05" fill="#3a414a"/><path d="M-645.7-416.72l-4.65-14.26h9.27z" stroke="#3a414a" fill="#3a414a"/><path d="M-910-548.3v5.75a6 6 0 0 1-6 6h-95.6" stroke="#3a414a" fill="none"/><path d="M-909.52-548.3h-.96v-.5h.96z" stroke="#3a414a" stroke-width=".05" fill="#3a414a"/><path d="M-1015.2-525.82l.15-15 8.8 2.95z" stroke="#3a414a" fill="#3a414a"/><defs><path fill="#333" d="M370-1490V0H180v-1490h190" id="z"/><path fill="#333" d="M338-670V0H158v-1118h173l1 207c72-158 192-221 342-221 226 0 378 139 378 422V0H872v-695c0-172-96-275-252-275-161 0-282 109-282 300" id="A"/><path fill="#333" d="M598-1118v154H368v674c0 100 37 144 132 144 23 0 62-6 92-12L629-6c-37 13-88 20-134 20-193 0-307-107-307-290v-688H20v-154h168v-266h180v266h230" id="B"/><path fill="#333" d="M628 24c-324 0-524-230-524-574 0-343 198-582 503-582 237 0 487 146 487 559v75H286c9 234 145 362 343 362 132 0 231-58 273-172l174 48C1024-91 857 24 628 24zM287-650h624c-17-190-120-322-304-322-192 0-309 151-320 322" id="C"/><path fill="#333" d="M158 0v-1118h174v172h12c41-113 157-188 290-188 26 0 70 2 91 3v181c-11-2-60-10-108-10-161 0-279 109-279 260V0H158" id="D"/><g id="a"><use transform="matrix(0.006510416666666667,0,0,0.006510416666666667,0,0)" xlink:href="#z"/><use transform="matrix(0.006510416666666667,0,0,0.006510416666666667,3.580729166666667,0)" xlink:href="#A"/><use transform="matrix(0.006510416666666667,0,0,0.006510416666666667,11.458333333333334,0)" xlink:href="#B"/><use transform="matrix(0.006510416666666667,0,0,0.006510416666666667,15.690104166666668,0)" xlink:href="#C"/><use transform="matrix(0.006510416666666667,0,0,0.006510416666666667,23.463541666666668,0)" xlink:href="#D"/><use transform="matrix(0.006510416666666667,0,0,0.006510416666666667,28.69140625,0)" xlink:href="#A"/><use transform="matrix(0.006510416666666667,0,0,0.006510416666666667,36.569010416666664,0)" xlink:href="#C"/><use transform="matrix(0.006510416666666667,0,0,0.006510416666666667,44.342447916666664,0)" xlink:href="#B"/></g><path d="M180 0v-1490h270l367 940c28 72 75 218 110 339 35-117 81-264 110-339l362-940h271V0h-187c2-448-5-837 7-1287-157 497-311 829-483 1287H842C666-458 514-784 354-1284c12 438 5 843 7 1284H180" id="E"/><path d="M613 24c-304 0-509-231-509-576 0-350 205-580 509-580 305 0 511 230 511 580 0 345-206 576-511 576zm0-161c226 0 329-195 329-415 0-222-103-419-329-419-223 0-326 196-326 419 0 220 103 415 326 415" id="F"/><path d="M577 24c-279 0-473-224-473-580 0-354 195-576 474-576 218 0 287 134 324 193h14v-551h180V0H922v-173h-20C865-111 790 24 577 24zm27-161c203 0 314-172 314-421 0-247-108-413-314-413-212 0-317 181-317 413 0 235 108 421 317 421" id="G"/><path d="M628 24c-324 0-524-230-524-574 0-343 198-582 503-582 237 0 487 146 487 559v75H286c9 234 145 362 343 362 132 0 231-58 273-172l174 48C1024-91 857 24 628 24zM287-650h624c-17-190-120-322-304-322-192 0-309 151-320 322" id="H"/><path d="M158 0v-1118h175l1 205c55-151 181-225 313-225 147 0 245 90 285 228 53-141 190-228 352-228 194 0 352 125 352 384V0h-181v-749c0-161-105-225-225-225-151 0-243 103-243 244V0H807v-767c0-124-93-207-219-207-131 0-250 92-250 270V0H158" id="I"/><g id="b"><use transform="matrix(0.006510416666666667,0,0,0.006510416666666667,0,0)" xlink:href="#E"/><use transform="matrix(0.006510416666666667,0,0,0.006510416666666667,12.044270833333334,0)" xlink:href="#F"/><use transform="matrix(0.006510416666666667,0,0,0.006510416666666667,20.0390625,0)" xlink:href="#G"/><use transform="matrix(0.006510416666666667,0,0,0.006510416666666667,28.203125,0)" xlink:href="#H"/><use transform="matrix(0.006510416666666667,0,0,0.006510416666666667,35.9765625,0)" xlink:href="#I"/></g><path d="M218-607c0-325 108-727 258-974h175c-155 315-250 682-250 974 0 265 78 531 250 886H476C306-10 218-315 218-607" id="J"/><path d="M600 0L52-1490h200c166 485 304 806 458 1336 156-533 285-846 449-1336h202L819 0H600" id="K"/><path d="M338-670V0H158v-1118h173l1 207c72-158 192-221 342-221 226 0 378 139 378 422V0H872v-695c0-172-96-275-252-275-161 0-282 109-282 300" id="L"/><path d="M158 0v-1118h174v172h12c41-113 157-188 290-188 26 0 70 2 91 3v181c-11-2-60-10-108-10-161 0-279 109-279 260V0H158" id="M"/><g id="c"><use transform="matrix(0.006510416666666667,0,0,0.006510416666666667,0,0)" xlink:href="#J"/><use transform="matrix(0.006510416666666667,0,0,0.006510416666666667,4.86328125,0)" xlink:href="#K"/><use transform="matrix(0.006510416666666667,0,0,0.006510416666666667,13.385416666666668,0)" xlink:href="#H"/><use transform="matrix(0.006510416666666667,0,0,0.006510416666666667,21.158854166666668,0)" xlink:href="#L"/><use transform="matrix(0.006510416666666667,0,0,0.006510416666666667,29.036458333333336,0)" xlink:href="#G"/><use transform="matrix(0.006510416666666667,0,0,0.006510416666666667,37.200520833333336,0)" xlink:href="#F"/><use transform="matrix(0.006510416666666667,0,0,0.006510416666666667,45.1953125,0)" xlink:href="#M"/></g><path d="M158 418v-1536h174v179h20c37-59 106-193 324-193 279 0 474 222 474 576 0 356-194 580-473 580-213 0-288-135-325-197h-14v591H158zm492-555c209 0 317-186 317-421 0-232-105-413-317-413-206 0-314 166-314 413 0 249 111 421 314 421" id="N"/><path d="M481 0L54-1118h197c107 314 236 620 325 951 87-331 217-637 324-951h197L670 0H481" id="O"/><path d="M158 0v-1118h180V0H158zm91-1301c-68 0-125-53-125-119s57-119 125-119c69 0 126 53 126 119s-57 119-126 119" id="P"/><path d="M96 279C273-86 346-350 346-607c0-292-95-659-250-974h175c150 246 258 650 258 974 0 297-91 602-258 886H96" id="Q"/><g id="d"><use transform="matrix(0.006510416666666667,0,0,0.006510416666666667,0,0)" xlink:href="#N"/><use transform="matrix(0.006510416666666667,0,0,0.006510416666666667,8.1640625,0)" xlink:href="#M"/><use transform="matrix(0.006510416666666667,0,0,0.006510416666666667,12.962239583333332,0)" xlink:href="#F"/><use transform="matrix(0.006510416666666667,0,0,0.006510416666666667,20.696614583333332,0)" xlink:href="#O"/><use transform="matrix(0.006510416666666667,0,0,0.006510416666666667,28.19010416666666,0)" xlink:href="#P"/><use transform="matrix(0.006510416666666667,0,0,0.006510416666666667,31.419270833333336,0)" xlink:href="#G"/><use transform="matrix(0.006510416666666667,0,0,0.006510416666666667,39.58333333333333,0)" xlink:href="#H"/><use transform="matrix(0.006510416666666667,0,0,0.006510416666666667,47.35677083333333,0)" xlink:href="#G"/><use transform="matrix(0.006510416666666667,0,0,0.006510416666666667,55.52083333333332,0)" xlink:href="#Q"/></g><g id="e"><use transform="matrix(0.006510416666666667,0,0,0.006510416666666667,0,0)" xlink:href="#E"/><use transform="matrix(0.006510416666666667,0,0,0.006510416666666667,12.044270833333334,0)" xlink:href="#P"/><use transform="matrix(0.006510416666666667,0,0,0.006510416666666667,15.2734375,0)" xlink:href="#L"/><use transform="matrix(0.006510416666666667,0,0,0.006510416666666667,23.151041666666668,0)" xlink:href="#P"/></g><path d="M180 0v-1490h510c348 0 508 209 508 474 0 266-160 477-507 477H370V0H180zm190-706h312c236 0 327-133 327-310 0-176-91-307-329-307H370v617" id="R"/><path d="M783 20c-382 0-661-292-661-764 0-473 279-766 661-766 302 0 548 182 601 489h-190c-42-204-217-313-411-313-268 0-476 208-476 590 0 381 209 588 476 588 195 0 369-110 411-313h190c-52 303-296 489-601 489" id="S"/><g id="f"><use transform="matrix(0.006510416666666667,0,0,0.006510416666666667,0,0)" xlink:href="#R"/><use transform="matrix(0.006510416666666667,0,0,0.006510416666666667,8.515625,0)" xlink:href="#S"/></g><path d="M645 0H180v-1490h484c435 0 692 280 692 742 0 466-257 748-711 748zM370-168h263c363 0 539-218 539-580 0-358-176-574-521-574H370v1154" id="T"/><path d="M677 24c-213 0-288-135-325-197h-20V0H158v-1490h180v551h14c37-59 106-193 324-193 279 0 474 222 474 576 0 356-194 580-473 580zm-27-161c209 0 317-186 317-421 0-232-105-413-317-413-206 0-314 166-314 413 0 249 111 421 314 421" id="U"/><path d="M471 26C259 26 90-98 90-318c0-256 228-303 435-329 202-27 287-16 287-108 0-139-79-219-234-219-161 0-248 86-283 164l-173-57c86-203 278-265 451-265 150 0 419 46 419 395V0H815v-152h-12C765-73 660 26 471 26zm31-159c199 0 310-134 310-271v-155c-30 35-226 55-295 64-131 17-246 59-246 186 0 116 97 176 231 176" id="V"/><g id="g"><use transform="matrix(0.006510416666666667,0,0,0.006510416666666667,0,0)" xlink:href="#J"/><use transform="matrix(0.006510416666666667,0,0,0.006510416666666667,4.86328125,0)" xlink:href="#T"/><use transform="matrix(0.006510416666666667,0,0,0.006510416666666667,14.485677083333334,0)" xlink:href="#H"/><use transform="matrix(0.006510416666666667,0,0,0.006510416666666667,22.259114583333336,0)" xlink:href="#U"/><use transform="matrix(0.006510416666666667,0,0,0.006510416666666667,30.423177083333336,0)" xlink:href="#P"/><use transform="matrix(0.006510416666666667,0,0,0.006510416666666667,33.65234375,0)" xlink:href="#V"/><use transform="matrix(0.006510416666666667,0,0,0.006510416666666667,41.139322916666664,0)" xlink:href="#L"/><use transform="matrix(0.006510416666666667,0,0,0.006510416666666667,49.01692708333333,0)" xlink:href="#Q"/></g><path d="M338-1490V0H158v-1490h180" id="W"/><path d="M537 14c-226 0-379-139-379-422v-710h180v695c0 172 97 275 253 275 160 0 281-109 281-300v-670h181V0H879v-209C806-46 684 14 537 14" id="X"/><path d="M678-1118v154H420V0H240v-964H20v-154h220v-149c0-194 155-293 318-293 85 0 141 18 168 30l-50 154c-19-6-47-17-97-17-111 0-159 58-159 166v109h258" id="Y"/><g id="h"><use transform="matrix(0.006510416666666667,0,0,0.006510416666666667,0,0)" xlink:href="#S"/><use transform="matrix(0.006510416666666667,0,0,0.006510416666666667,9.739583333333334,0)" xlink:href="#W"/><use transform="matrix(0.006510416666666667,0,0,0.006510416666666667,12.96875,0)" xlink:href="#F"/><use transform="matrix(0.006510416666666667,0,0,0.006510416666666667,20.963541666666668,0)" xlink:href="#X"/><use transform="matrix(0.006510416666666667,0,0,0.006510416666666667,28.84765625,0)" xlink:href="#G"/><use transform="matrix(0.006510416666666667,0,0,0.006510416666666667,37.01171875,0)" xlink:href="#Y"/><use transform="matrix(0.006510416666666667,0,0,0.006510416666666667,41.946614583333336,0)" xlink:href="#W"/><use transform="matrix(0.006510416666666667,0,0,0.006510416666666667,45.17578125,0)" xlink:href="#V"/><use transform="matrix(0.006510416666666667,0,0,0.006510416666666667,52.662760416666664,0)" xlink:href="#M"/><use transform="matrix(0.006510416666666667,0,0,0.006510416666666667,57.4609375,0)" xlink:href="#H"/></g><path d="M180 0v-1490h510c348 0 508 194 508 460 0 198-88 351-276 417L1256 0h-220L726-579c-117 2-238 0-356 1V0H180zm190-747h312c235 0 327-108 327-283 0-177-92-293-329-293H370v576" id="Z"/><path d="M598-1118v154H368v674c0 100 37 144 132 144 23 0 62-6 92-12L629-6c-37 13-88 20-134 20-193 0-307-107-307-290v-688H20v-154h168v-266h180v266h230" id="aa"/><g id="i"><use transform="matrix(0.006510416666666667,0,0,0.006510416666666667,0,0)" xlink:href="#Z"/><use transform="matrix(0.006510416666666667,0,0,0.006510416666666667,8.385416666666668,0)" xlink:href="#H"/><use transform="matrix(0.006510416666666667,0,0,0.006510416666666667,16.158854166666668,0)" xlink:href="#I"/><use transform="matrix(0.006510416666666667,0,0,0.006510416666666667,27.838541666666668,0)" xlink:href="#F"/><use transform="matrix(0.006510416666666667,0,0,0.006510416666666667,35.833333333333336,0)" xlink:href="#aa"/><use transform="matrix(0.006510416666666667,0,0,0.006510416666666667,40.065104166666664,0)" xlink:href="#H"/></g><path d="M180 0v-1490h224l606 953c40 63 108 177 176 312-27-437-7-821-13-1265h190V0h-226C860-448 622-778 356-1262c27 476 11 792 15 1262H180" id="ab"/><path d="M52 0l541-1490h220L1361 0h-200l-149-416H398L254 0H52zm404-582h497c-103-290-145-390-251-756-108 377-145 460-246 756" id="ac"/><path d="M657 26c-323 0-524-166-541-416h195c15 169 171 246 346 246 202 0 356-106 356-265 5-203-294-238-475-293-239-73-380-191-380-389 0-252 224-419 512-419 294 0 499 171 508 396H992c-17-145-151-228-328-228-193 0-321 102-321 242 0 156 175 211 284 241l149 41c160 44 422 134 422 412 0 244-197 432-541 432" id="ad"/><g id="j"><use transform="matrix(0.006510416666666667,0,0,0.006510416666666667,0,0)" xlink:href="#ab"/><use transform="matrix(0.006510416666666667,0,0,0.006510416666666667,10.045572916666668,0)" xlink:href="#ac"/><use transform="matrix(0.006510416666666667,0,0,0.006510416666666667,19.244791666666668,0)" xlink:href="#ad"/></g><path d="M458 0L52-1490h194c108 439 233 855 324 1313 92-459 221-873 331-1313h216c110 438 234 854 330 1307 92-455 216-869 323-1307h196L1558 0h-221l-256-944c-26-95-50-200-73-331-22 122-44 223-73 331L680 0H458" id="ae"/><g id="k"><use transform="matrix(0.006510416666666667,0,0,0.006510416666666667,0,0)" xlink:href="#ae"/><use transform="matrix(0.006510416666666667,0,0,0.006510416666666667,13.138020833333334,0)" xlink:href="#P"/><use transform="matrix(0.006510416666666667,0,0,0.006510416666666667,16.3671875,0)" xlink:href="#Y"/><use transform="matrix(0.006510416666666667,0,0,0.006510416666666667,21.302083333333336,0)" xlink:href="#P"/></g><path d="M538 24C308 24 148-78 108-271l171-41c32 123 123 178 257 178 156 0 256-77 256-169 0-77-54-128-164-154l-186-44c-203-48-300-148-300-305 0-192 176-326 414-326 230 0 351 112 402 269l-163 42c-31-80-94-158-238-158-133 0-233 69-233 162 0 83 57 129 188 160l169 40c203 48 298 149 298 302 0 196-179 339-441 339" id="af"/><path d="M338-670V0H158v-1490h180v566c73-149 190-208 336-208 226 0 379 139 379 422V0H872v-695c0-172-96-275-252-275-161 0-282 109-282 300" id="ag"/><g id="l"><use transform="matrix(0.006510416666666667,0,0,0.006510416666666667,0,0)" xlink:href="#E"/><use transform="matrix(0.006510416666666667,0,0,0.006510416666666667,12.044270833333334,0)" xlink:href="#H"/><use transform="matrix(0.006510416666666667,0,0,0.006510416666666667,19.817708333333336,0)" xlink:href="#af"/><use transform="matrix(0.006510416666666667,0,0,0.006510416666666667,26.85546875,0)" xlink:href="#ag"/></g><g id="m"><use transform="matrix(0.006510416666666667,0,0,0.006510416666666667,0,0)" xlink:href="#J"/><use transform="matrix(0.006510416666666667,0,0,0.006510416666666667,4.86328125,0)" xlink:href="#ac"/><use transform="matrix(0.006510416666666667,0,0,0.006510416666666667,14.0625,0)" xlink:href="#R"/></g><path d="M140 405l46-156c120 36 205 19 263-150l32-93L54-1118h197c107 313 237 620 324 950 87-331 219-637 326-950h196L606 167c-68 178-176 259-334 259-64 0-113-12-132-21" id="ah"/><g id="n"><use transform="matrix(0.006510416666666667,0,0,0.006510416666666667,0,0)" xlink:href="#F"/><use transform="matrix(0.006510416666666667,0,0,0.006510416666666667,7.994791666666667,0)" xlink:href="#L"/><use transform="matrix(0.006510416666666667,0,0,0.006510416666666667,15.872395833333334,0)" xlink:href="#W"/><use transform="matrix(0.006510416666666667,0,0,0.006510416666666667,19.166666666666668,0)" xlink:href="#ah"/><use transform="matrix(0.006510416666666667,0,0,0.006510416666666667,26.66015625,0)" xlink:href="#Q"/></g><path d="M98-1322v-168h1126v168H757V0H567v-1322H98" id="ai"/><path d="M180 0v-1490h190v1322h690V0H180" id="aj"/><path d="M158 0v-1490h180v865h22l478-493h223L593-638 1096 0H865L456-523 338-412V0H158" id="ak"/><g id="o"><use transform="matrix(0.006510416666666667,0,0,0.006510416666666667,0,0)" xlink:href="#ai"/><use transform="matrix(0.006510416666666667,0,0,0.006510416666666667,7.8515625,0)" xlink:href="#N"/><use transform="matrix(0.006510416666666667,0,0,0.006510416666666667,16.015625,0)" xlink:href="#aj"/><use transform="matrix(0.006510416666666667,0,0,0.006510416666666667,23.5546875,0)" xlink:href="#P"/><use transform="matrix(0.006510416666666667,0,0,0.006510416666666667,26.783854166666668,0)" xlink:href="#L"/><use transform="matrix(0.006510416666666667,0,0,0.006510416666666667,34.661458333333336,0)" xlink:href="#ak"/></g><path d="M57 0l534-763-501-727h220c122 187 296 416 391 605 94-191 272-419 396-605h215L811-770 1340 0h-219C986-204 811-426 699-640 588-430 407-202 273 0H57" id="al"/><path d="M646 20c-249 0-524-159-524-708 0-524 209-822 547-822 250 0 431 161 467 395H950c-33-129-126-227-281-227-229 0-367 208-367 566h12c80-124 212-198 367-198 255 0 467 205 467 493 0 278-198 501-502 501zm0-167c179 0 318-148 318-334 0-182-133-328-313-328-181 0-322 156-322 330 0 176 134 332 317 332" id="am"/><path d="M646 20c-332 0-524-278-524-764 0-483 194-766 524-766s524 283 524 766c0 485-191 764-524 764zm0-166c218 0 341-220 341-598 0-380-123-601-341-601s-341 222-341 601c0 378 123 598 341 598" id="an"/><g id="p"><use transform="matrix(0.006510416666666667,0,0,0.006510416666666667,0,0)" xlink:href="#al"/><use transform="matrix(0.006510416666666667,0,0,0.006510416666666667,8.639322916666668,0)" xlink:href="#am"/><use transform="matrix(0.006510416666666667,0,0,0.006510416666666667,16.907552083333336,0)" xlink:href="#an"/></g><path d="M613 24c-304 0-509-231-509-576 0-350 205-580 509-580 216 0 392 114 453 309l-173 49c-33-115-133-197-280-197-223 0-326 196-326 419 0 220 103 415 326 415 150 0 252-85 285-206l172 49C1010-95 832 24 613 24" id="ao"/><g id="q"><use transform="matrix(0.006510416666666667,0,0,0.006510416666666667,0,0)" xlink:href="#aj"/><use transform="matrix(0.006510416666666667,0,0,0.006510416666666667,7.5390625,0)" xlink:href="#F"/><use transform="matrix(0.006510416666666667,0,0,0.006510416666666667,15.533854166666668,0)" xlink:href="#ao"/><use transform="matrix(0.006510416666666667,0,0,0.006510416666666667,23.28125,0)" xlink:href="#V"/><use transform="matrix(0.006510416666666667,0,0,0.006510416666666667,30.768229166666668,0)" xlink:href="#W"/></g><g id="r"><use transform="matrix(0.006510416666666667,0,0,0.006510416666666667,0,0)" xlink:href="#ab"/><use transform="matrix(0.006510416666666667,0,0,0.006510416666666667,10.045572916666668,0)" xlink:href="#ac"/><use transform="matrix(0.006510416666666667,0,0,0.006510416666666667,19.244791666666668,0)" xlink:href="#ad"/></g><path d="M611 442c-248 0-391-105-460-228l146-94c47 65 117 165 314 165 178 0 307-82 307-266v-224h-17C863-141 792-18 576-18c-268 0-472-195-472-546 0-346 197-568 476-568 216 0 288 133 326 193h17v-179h175V29c0 289-215 413-487 413zm-5-620c203 0 314-146 314-390 0-237-108-403-314-403-213 0-319 180-319 403 0 230 109 390 319 390" id="ap"/><g id="s"><use transform="matrix(0.006510416666666667,0,0,0.006510416666666667,0,0)" xlink:href="#J"/><use transform="matrix(0.006510416666666667,0,0,0.006510416666666667,4.86328125,0)" xlink:href="#ad"/><use transform="matrix(0.006510416666666667,0,0,0.006510416666666667,13.41796875,0)" xlink:href="#ah"/><use transform="matrix(0.006510416666666667,0,0,0.006510416666666667,20.911458333333336,0)" xlink:href="#L"/><use transform="matrix(0.006510416666666667,0,0,0.006510416666666667,28.7890625,0)" xlink:href="#F"/><use transform="matrix(0.006510416666666667,0,0,0.006510416666666667,36.78385416666667,0)" xlink:href="#W"/><use transform="matrix(0.006510416666666667,0,0,0.006510416666666667,40.013020833333336,0)" xlink:href="#F"/><use transform="matrix(0.006510416666666667,0,0,0.006510416666666667,48.0078125,0)" xlink:href="#ap"/><use transform="matrix(0.006510416666666667,0,0,0.006510416666666667,56.184895833333336,0)" xlink:href="#ah"/><use transform="matrix(0.006510416666666667,0,0,0.006510416666666667,63.67838541666667,0)" xlink:href="#Q"/></g><path d="M692-1560L212 224H46l480-1784h166" id="aq"/><g id="t"><use transform="matrix(0.006510416666666667,0,0,0.006510416666666667,0,0)" xlink:href="#R"/><use transform="matrix(0.006510416666666667,0,0,0.006510416666666667,8.515625,0)" xlink:href="#S"/><use transform="matrix(0.006510416666666667,0,0,0.006510416666666667,18.255208333333336,0)" xlink:href="#aq"/><use transform="matrix(0.006510416666666667,0,0,0.006510416666666667,23.059895833333336,0)" xlink:href="#E"/><use transform="matrix(0.006510416666666667,0,0,0.006510416666666667,35.10416666666667,0)" xlink:href="#V"/><use transform="matrix(0.006510416666666667,0,0,0.006510416666666667,42.591145833333336,0)" xlink:href="#ao"/></g><g id="u"><use transform="matrix(0.006510416666666667,0,0,0.006510416666666667,0,0)" xlink:href="#R"/><use transform="matrix(0.006510416666666667,0,0,0.006510416666666667,8.515625,0)" xlink:href="#ag"/><use transform="matrix(0.006510416666666667,0,0,0.006510416666666667,16.399739583333336,0)" xlink:href="#F"/><use transform="matrix(0.006510416666666667,0,0,0.006510416666666667,24.394531250000004,0)" xlink:href="#L"/><use transform="matrix(0.006510416666666667,0,0,0.006510416666666667,32.27213541666667,0)" xlink:href="#H"/><use transform="matrix(0.006510416666666667,0,0,0.006510416666666667,40.04557291666667,0)" xlink:href="#af"/></g><path d="M784 20c-382 0-662-292-662-764 0-473 280-766 662-766s660 293 660 766c0 472-278 764-660 764zm0-176c266 0 475-207 475-588 0-383-209-590-475-590-268 0-477 208-477 590 0 380 209 588 477 588" id="ar"/><g id="v"><use transform="matrix(0.006510416666666667,0,0,0.006510416666666667,0,0)" xlink:href="#ar"/><use transform="matrix(0.006510416666666667,0,0,0.006510416666666667,10.1953125,0)" xlink:href="#aa"/><use transform="matrix(0.006510416666666667,0,0,0.006510416666666667,14.557291666666668,0)" xlink:href="#ag"/><use transform="matrix(0.006510416666666667,0,0,0.006510416666666667,22.44140625,0)" xlink:href="#H"/><use transform="matrix(0.006510416666666667,0,0,0.006510416666666667,30.21484375,0)" xlink:href="#M"/><use transform="matrix(0.006510416666666667,0,0,0.006510416666666667,35.234375,0)" xlink:href="#af"/></g><g id="w"><use transform="matrix(0.006510416666666667,0,0,0.006510416666666667,0,0)" xlink:href="#T"/><use transform="matrix(0.006510416666666667,0,0,0.006510416666666667,9.622395833333334,0)" xlink:href="#T"/><use transform="matrix(0.006510416666666667,0,0,0.006510416666666667,19.244791666666668,0)" xlink:href="#ab"/><use transform="matrix(0.006510416666666667,0,0,0.006510416666666667,29.290364583333336,0)" xlink:href="#ad"/></g><g id="x"><use transform="matrix(0.006510416666666667,0,0,0.006510416666666667,0,0)" xlink:href="#aa"/><use transform="matrix(0.006510416666666667,0,0,0.006510416666666667,4.361979166666667,0)" xlink:href="#X"/><use transform="matrix(0.006510416666666667,0,0,0.006510416666666667,12.24609375,0)" xlink:href="#L"/></g><g id="y"><use transform="matrix(0.006510416666666667,0,0,0.006510416666666667,0,0)" xlink:href="#J"/><use transform="matrix(0.006510416666666667,0,0,0.006510416666666667,4.713541666666667,0)" xlink:href="#ao"/><use transform="matrix(0.006510416666666667,0,0,0.006510416666666667,12.330729166666668,0)" xlink:href="#W"/><use transform="matrix(0.006510416666666667,0,0,0.006510416666666667,15.559895833333337,0)" xlink:href="#F"/><use transform="matrix(0.006510416666666667,0,0,0.006510416666666667,23.554687500000004,0)" xlink:href="#X"/><use transform="matrix(0.006510416666666667,0,0,0.006510416666666667,31.438802083333336,0)" xlink:href="#G"/><use transform="matrix(0.006510416666666667,0,0,0.006510416666666667,39.602864583333336,0)" xlink:href="#Y"/><use transform="matrix(0.006510416666666667,0,0,0.006510416666666667,44.53776041666667,0)" xlink:href="#W"/><use transform="matrix(0.006510416666666667,0,0,0.006510416666666667,47.766927083333336,0)" xlink:href="#V"/><use transform="matrix(0.006510416666666667,0,0,0.006510416666666667,55.25390625,0)" xlink:href="#M"/><use transform="matrix(0.006510416666666667,0,0,0.006510416666666667,60.052083333333336,0)" xlink:href="#H"/><use transform="matrix(0.006510416666666667,0,0,0.006510416666666667,67.82552083333334,0)" xlink:href="#G"/><use transform="matrix(0.006510416666666667,0,0,0.006510416666666667,75.98958333333334,0)" xlink:href="#Q"/></g></defs></g></svg>